<svg xmlns="http://www.w3.org/2000/svg" xmlns:xlink="http://www.w3.org/1999/xlink" width="500" zoomAndPan="magnify" viewBox="0 0 375 374.999991" height="500" preserveAspectRatio="xMidYMid meet" version="1.0"><defs><g/><clipPath id="bbcffe68bc"><path d="M 213.980469 136.09375 L 316.730469 136.09375 L 316.730469 238.84375 L 213.980469 238.84375 Z M 213.980469 136.09375 " clip-rule="nonzero"/></clipPath></defs><g clip-path="url(#bbcffe68bc)"><path fill="#fbbe28" d="M 305.28125 147.601562 L 305.28125 191.71875 C 305.28125 192.886719 305.222656 194.050781 305.105469 195.214844 C 304.992188 196.375 304.820312 197.53125 304.589844 198.675781 C 304.363281 199.820312 304.078125 200.953125 303.738281 202.070312 C 303.398438 203.1875 303.003906 204.285156 302.554688 205.363281 C 302.109375 206.445312 301.609375 207.496094 301.058594 208.527344 C 300.507812 209.558594 299.90625 210.558594 299.257812 211.527344 C 298.609375 212.5 297.914062 213.4375 297.171875 214.339844 C 296.429688 215.242188 295.648438 216.105469 294.820312 216.933594 C 293.996094 217.757812 293.132812 218.542969 292.226562 219.285156 C 291.324219 220.023438 290.386719 220.71875 289.417969 221.371094 C 288.445312 222.019531 287.445312 222.617188 286.417969 223.167969 C 285.386719 223.722656 284.332031 224.21875 283.253906 224.667969 C 282.175781 225.117188 281.074219 225.507812 279.957031 225.847656 C 278.839844 226.1875 277.710938 226.472656 276.5625 226.703125 C 275.417969 226.929688 274.265625 227.101562 273.101562 227.21875 C 271.941406 227.335938 270.773438 227.394531 269.605469 227.394531 L 225.492188 227.394531 L 225.492188 147.601562 L 305.28125 147.601562 M 316.789062 136.09375 L 213.980469 136.09375 L 213.980469 238.902344 L 269.605469 238.902344 C 271.152344 238.902344 272.695312 238.828125 274.230469 238.675781 C 275.769531 238.523438 277.296875 238.296875 278.8125 237.996094 C 280.328125 237.695312 281.824219 237.320312 283.304688 236.871094 C 284.78125 236.421875 286.234375 235.902344 287.664062 235.3125 C 289.089844 234.71875 290.484375 234.058594 291.847656 233.332031 C 293.210938 232.601562 294.535156 231.808594 295.820312 230.949219 C 297.105469 230.09375 298.34375 229.171875 299.539062 228.191406 C 300.734375 227.210938 301.878906 226.175781 302.972656 225.082031 C 304.0625 223.988281 305.101562 222.847656 306.082031 221.652344 C 307.0625 220.457031 307.980469 219.21875 308.839844 217.933594 C 309.699219 216.648438 310.492188 215.324219 311.21875 213.960938 C 311.949219 212.597656 312.609375 211.203125 313.199219 209.773438 C 313.789062 208.347656 314.3125 206.894531 314.757812 205.414062 C 315.207031 203.9375 315.582031 202.4375 315.882812 200.921875 C 316.1875 199.40625 316.414062 197.882812 316.5625 196.34375 C 316.714844 194.804688 316.789062 193.261719 316.789062 191.71875 Z M 316.789062 136.09375 " fill-opacity="1" fill-rule="nonzero"/></g><g fill="#d9d9d9" fill-opacity="1"><g transform="translate(62.084678, 197.767869)"><g><path d="M 29.9375 -9.265625 L 31.171875 -1.671875 C 28.785156 -0.753906 26.398438 -0.0976562 24.015625 0.296875 C 22.460938 0.585938 20.90625 0.734375 19.34375 0.734375 C 18.5625 0.734375 17.757812 0.679688 16.9375 0.578125 C 14.601562 0.390625 12.546875 -0.175781 10.765625 -1.125 C 8.992188 -2.082031 7.554688 -3.59375 6.453125 -5.65625 C 5.359375 -7.726562 4.8125 -10.296875 4.8125 -13.359375 L 4.8125 -36.796875 C 4.8125 -40.492188 5.332031 -43.289062 6.375 -45.1875 C 7.425781 -47.082031 9.023438 -48.6875 11.171875 -50 C 13.359375 -51.21875 15.960938 -51.828125 18.984375 -51.828125 C 19.273438 -51.828125 19.585938 -51.828125 19.921875 -51.828125 C 23.328125 -51.679688 26.46875 -50.878906 29.34375 -49.421875 L 27.078125 -42.125 C 24.835938 -42.945312 22.378906 -43.359375 19.703125 -43.359375 C 17.660156 -43.359375 16.003906 -42.796875 14.734375 -41.671875 C 13.472656 -40.554688 12.84375 -39.148438 12.84375 -37.453125 L 12.84375 -13.5 C 12.84375 -12.625 12.941406 -11.832031 13.140625 -11.125 C 13.335938 -10.425781 13.65625 -9.859375 14.09375 -9.421875 C 14.53125 -8.984375 14.96875 -8.59375 15.40625 -8.25 C 15.84375 -7.90625 16.445312 -7.6875 17.21875 -7.59375 C 18 -7.5 18.65625 -7.414062 19.1875 -7.34375 C 19.726562 -7.269531 20.472656 -7.304688 21.421875 -7.453125 C 22.367188 -7.597656 23.109375 -7.707031 23.640625 -7.78125 C 24.179688 -7.851562 24.953125 -8.007812 25.953125 -8.25 C 26.953125 -8.488281 27.644531 -8.65625 28.03125 -8.75 C 28.414062 -8.851562 29.050781 -9.023438 29.9375 -9.265625 Z M 29.9375 -9.265625 "/></g></g></g><g fill="#d9d9d9" fill-opacity="1"><g transform="translate(93.473016, 197.767869)"><g><path d="M 35.265625 -36.9375 L 35.265625 -13.5 C 35.265625 -8.582031 33.765625 -4.96875 30.765625 -2.65625 C 27.773438 -0.351562 24.1875 0.796875 20 0.796875 C 15.8125 0.796875 12.195312 -0.351562 9.15625 -2.65625 C 6.113281 -4.96875 4.59375 -8.582031 4.59375 -13.5 L 4.59375 -37.015625 C 4.59375 -42.023438 5.96875 -45.816406 8.71875 -48.390625 C 11.46875 -50.972656 15.25 -52.265625 20.0625 -52.265625 C 24.882812 -52.265625 28.625 -50.898438 31.28125 -48.171875 C 33.9375 -45.453125 35.265625 -41.707031 35.265625 -36.9375 Z M 27.234375 -15.03125 L 27.234375 -34.3125 C 27.234375 -37.425781 26.753906 -39.75 25.796875 -41.28125 C 24.847656 -42.8125 22.890625 -43.578125 19.921875 -43.578125 C 16.953125 -43.578125 14.992188 -42.832031 14.046875 -41.34375 C 13.097656 -39.863281 12.625 -37.546875 12.625 -34.390625 L 12.625 -14.890625 C 12.625 -12.554688 13.21875 -10.71875 14.40625 -9.375 C 15.601562 -8.039062 17.441406 -7.375 19.921875 -7.375 C 22.210938 -7.375 24.003906 -8.078125 25.296875 -9.484375 C 26.585938 -10.898438 27.234375 -12.75 27.234375 -15.03125 Z M 27.234375 -15.03125 "/></g></g></g><g fill="#d9d9d9" fill-opacity="1"><g transform="translate(133.5479, 197.767869)"><g><path d="M 20.875 0 L 5.6875 0 L 5.6875 -51.171875 L 19.421875 -51.171875 C 24.921875 -51.171875 29.117188 -49.660156 32.015625 -46.640625 C 34.910156 -43.628906 36.359375 -39.617188 36.359375 -34.609375 L 36.359375 -14.59375 C 36.359375 -4.863281 31.195312 0 20.875 0 Z M 28.328125 -13.875 L 28.328125 -35.328125 C 28.328125 -38.003906 27.65625 -39.960938 26.3125 -41.203125 C 24.976562 -42.441406 22.921875 -43.0625 20.140625 -43.0625 L 13.71875 -43.0625 L 13.71875 -7.375 L 19.703125 -7.375 C 20.921875 -7.375 21.941406 -7.429688 22.765625 -7.546875 C 23.597656 -7.671875 24.488281 -7.925781 25.4375 -8.3125 C 26.382812 -8.707031 27.101562 -9.367188 27.59375 -10.296875 C 28.082031 -11.222656 28.328125 -12.414062 28.328125 -13.875 Z M 28.328125 -13.875 "/></g></g></g><g fill="#d9d9d9" fill-opacity="1"><g transform="translate(175.593673, 197.767869)"><g><path d="M 29.9375 0 L 5.6875 0 L 5.6875 -51.09375 L 30.078125 -51.09375 L 30.078125 -43.0625 L 13.71875 -43.0625 L 13.71875 -30.15625 L 23.71875 -30.15625 L 21.46875 -22.484375 L 13.71875 -22.484375 L 13.71875 -7.296875 L 29.9375 -7.296875 Z M 29.9375 0 "/></g></g></g><g fill="#d9d9d9" fill-opacity="1"><g transform="translate(129.25255, 233.627034)"><g><path d="M 28.953125 -21.46875 L 23.984375 0 L 19.265625 0 L 14.921875 -18.21875 L 10.515625 0 L 5.8125 0 L 0.875 -21.46875 L 4.84375 -21.46875 L 8.3125 -3.296875 L 12.5 -21.46875 L 17.34375 -21.46875 L 21.46875 -3.296875 L 24.984375 -21.46875 Z M 28.953125 -21.46875 "/></g></g></g><g fill="#d9d9d9" fill-opacity="1"><g transform="translate(161.279211, 233.627034)"><g><path d="M 6.8125 -21.46875 L 6.8125 0 L 3.078125 0 L 3.078125 -21.46875 Z M 4.921875 -30.140625 C 5.710938 -30.140625 6.320312 -29.960938 6.75 -29.609375 C 7.175781 -29.253906 7.390625 -28.753906 7.390625 -28.109375 L 7.390625 -26.84375 C 7.390625 -26.195312 7.175781 -25.703125 6.75 -25.359375 C 6.320312 -25.023438 5.710938 -24.859375 4.921875 -24.859375 C 4.160156 -24.859375 3.566406 -25.023438 3.140625 -25.359375 C 2.710938 -25.703125 2.5 -26.195312 2.5 -26.84375 L 2.5 -28.109375 C 2.5 -28.753906 2.710938 -29.253906 3.140625 -29.609375 C 3.566406 -29.960938 4.160156 -30.140625 4.921875 -30.140625 Z M 4.921875 -30.140625 "/></g></g></g><g fill="#d9d9d9" fill-opacity="1"><g transform="translate(173.377418, 233.627034)"><g><path d="M 12.453125 -22 C 12.859375 -22 13.179688 -21.96875 13.421875 -21.90625 L 13.421875 -17.6875 C 12.984375 -17.769531 12.410156 -17.8125 11.703125 -17.8125 C 9.648438 -17.8125 8.019531 -16.785156 6.8125 -14.734375 L 6.8125 0 L 3.078125 0 L 3.078125 -21.46875 L 6.59375 -21.46875 L 6.59375 -18.265625 C 7.382812 -19.460938 8.269531 -20.382812 9.25 -21.03125 C 10.238281 -21.675781 11.304688 -22 12.453125 -22 Z M 12.453125 -22 "/></g></g></g><g fill="#d9d9d9" fill-opacity="1"><g transform="translate(189.874836, 233.627034)"><g><path d="M 10.125 -22 C 12.582031 -22 14.457031 -21.320312 15.75 -19.96875 C 17.039062 -18.625 17.6875 -16.675781 17.6875 -14.125 L 17.6875 -9.59375 L 6.375 -9.59375 L 6.375 -7 C 6.375 -5.5 6.734375 -4.414062 7.453125 -3.75 C 8.171875 -3.09375 9.3125 -2.765625 10.875 -2.765625 C 12.394531 -2.765625 14.300781 -3 16.59375 -3.46875 L 16.671875 -0.21875 C 13.941406 0.28125 11.992188 0.53125 10.828125 0.53125 C 7.921875 0.53125 5.828125 -0.0976562 4.546875 -1.359375 C 3.273438 -2.617188 2.640625 -4.570312 2.640625 -7.21875 L 2.640625 -14.125 C 2.640625 -16.675781 3.257812 -18.625 4.5 -19.96875 C 5.75 -21.320312 7.625 -22 10.125 -22 Z M 10.125 -18.875 C 8.976562 -18.875 8.066406 -18.515625 7.390625 -17.796875 C 6.710938 -17.078125 6.375 -16.046875 6.375 -14.703125 L 6.375 -12.578125 L 13.953125 -12.578125 L 13.953125 -14.5625 C 13.953125 -15.96875 13.601562 -17.035156 12.90625 -17.765625 C 12.21875 -18.503906 11.289062 -18.875 10.125 -18.875 Z M 10.125 -18.875 "/></g></g></g></svg>